<svg xmlns="http://www.w3.org/2000/svg" width="100%" height="100%" viewBox="0 0 100 60"><rect width="100" height="60" fill="#b38289"/><g><rect width="11" height="11" fill="#b38289"/><rect width="11" height="11" x="10" fill="#b5848a"/><rect width="11" height="11" y="10" fill="#b7858a"/><rect width="11" height="11" x="20" fill="#ba878b"/><rect width="11" height="11" x="10" y="10" fill="#bc898c"/><rect width="11" height="11" y="20" fill="#be8b8c"/><rect width="11" height="11" x="30" fill="#c08c8d"/><rect width="11" height="11" x="20" y="10" fill="#c28e8e"/><rect width="11" height="11" x="10" y="20" fill="#c4908e"/><rect width="11" height="11" y="30" fill="#c6928f"/><rect width="11" height="11" x="40" fill="#c89490"/><rect width="11" height="11" x="30" y="10" fill="#ca9590"/><rect width="11" height="11" x="20" y="20" fill="#cc9791"/><rect width="11" height="11" x="10" y="30" fill="#ce9992"/><rect width="11" height="11" y="40" fill="#d09b92"/><rect width="11" height="11" x="50" fill="#d19d93"/><rect width="11" height="11" x="40" y="10" fill="#d39f94"/><rect width="11" height="11" x="30" y="20" fill="#d5a194"/><rect width="11" height="11" x="20" y="30" fill="#d7a395"/><rect width="11" height="11" x="10" y="40" fill="#d8a596"/><rect width="11" height="11" y="50" fill="#daa797"/><rect width="11" height="11" x="60" fill="#dca997"/><rect width="11" height="11" x="50" y="10" fill="#ddab98"/><rect width="11" height="11" x="40" y="20" fill="#dfad99"/><rect width="11" height="11" x="30" y="30" fill="#e0af9a"/><rect width="11" height="11" x="20" y="40" fill="#e2b19a"/><rect width="11" height="11" x="10" y="50" fill="#e3b39b"/><rect width="11" height="11" x="70" fill="#e5b59c"/><rect width="11" height="11" x="60" y="10" fill="#e6b79d"/><rect width="11" height="11" x="50" y="20" fill="#e7ba9e"/><rect width="11" height="11" x="40" y="30" fill="#e9bc9f"/><rect width="11" height="11" x="30" y="40" fill="#eabe9f"/><rect width="11" height="11" x="20" y="50" fill="#ebc0a0"/><rect width="11" height="11" x="80" fill="#ecc2a1"/><rect width="11" height="11" x="70" y="10" fill="#edc5a2"/><rect width="11" height="11" x="60" y="20" fill="#efc7a3"/><rect width="11" height="11" x="50" y="30" fill="#f0c9a5"/><rect width="11" height="11" x="40" y="40" fill="#f1cba6"/><rect width="11" height="11" x="30" y="50" fill="#f2cea7"/><rect width="11" height="11" x="90" fill="#f3d0a8"/><rect width="11" height="11" x="80" y="10" fill="#f4d2a9"/><rect width="11" height="11" x="70" y="20" fill="#f4d4aa"/><rect width="11" height="11" x="60" y="30" fill="#f5d7ac"/><rect width="11" height="11" x="50" y="40" fill="#f6d9ad"/><rect width="11" height="11" x="40" y="50" fill="#f7dbae"/><rect width="11" height="11" x="90" y="10" fill="#f8deb0"/><rect width="11" height="11" x="80" y="20" fill="#f8e0b1"/><rect width="11" height="11" x="70" y="30" fill="#f9e2b3"/><rect width="11" height="11" x="60" y="40" fill="#fae5b4"/><rect width="11" height="11" x="50" y="50" fill="#fae7b6"/><rect width="11" height="11" x="90" y="20" fill="#fbe9b7"/><rect width="11" height="11" x="80" y="30" fill="#fcecb9"/><rect width="11" height="11" x="70" y="40" fill="#fceebb"/><rect width="11" height="11" x="60" y="50" fill="#fdf1bc"/><rect width="11" height="11" x="90" y="30" fill="#fdf3be"/><rect width="11" height="11" x="80" y="40" fill="#fef5c0"/><rect width="11" height="11" x="70" y="50" fill="#fef8c2"/><rect width="11" height="11" x="90" y="40" fill="#fefac4"/><rect width="11" height="11" x="80" y="50" fill="#fffdc6"/><rect width="11" height="11" x="90" y="50" fill="#ffffc8"/></g></svg>